# xmcd
#
# Track frame offsets: 
#        151
#        10072
#        24374
#        38071
#        46535
#        58177
#        71865
#        83134
#        95715
#        108859
#        120330
#        132762
#        146974
#        156418
#        166648
#        179147
#        191548
#        202823
#        214290
#        227602
#
# Disc length: 3163 seconds
#
# Revision: 1
# Processed by: cddbd v1.5.2PL0 Copyright (c) Steve Scherf et al.
# Submitted via: ExactAudioCopyFreeDBPlugin 1.0
#
DISCID=0f0c5914
DTITLE=Dean Martin - Happy Feet, A Collection Of His Greatest Hits
DYEAR=2004
DGENRE=Easy Listening
TTITLE0=Zing-A Zing-A Zing Boom
TTITLE1=I'm Gonna PaperAll My Walls With Your love Letters
TTITLE2=Muskrat Ramble
TTITLE3=I Don't Care If The Sun Don't Shine
TTITLE4=I Still Get A Thrill
TTITLE5=Bye Bye Blackbird
TTITLE6=Happy Feet
TTITLE7=Wham! Bam! Thank You, M'am!
TTITLE8=I Am In Love With You (duet with Margaret Whiting)
TTITLE9=Don't Rock The Boat Dear (duet with Margaret Whiting)
TTITLE10=If
TTITLE11=I Love The Way You Say Goodnight
TTITLE12=You And Your Beautiful Eyes
TTITLE13=Who's Sorry Now?
TTITLE14=We Never Talk Much, We Just Sit Around
TTITLE15=How D'ya Like Your Eggs In The Morning?
TTITLE16=Oh Marie
TTITLE17=I'll Always Love You
TTITLE18=In The Cool, Cool, Cool Of The Evening
TTITLE19=Aw C'mon
EXTD=
EXTT0=
EXTT1=
EXTT2=
EXTT3=
EXTT4=
EXTT5=
EXTT6=
EXTT7=
EXTT8=
EXTT9=
EXTT10=
EXTT11=
EXTT12=
EXTT13=
EXTT14=
EXTT15=
EXTT16=
EXTT17=
EXTT18=
EXTT19=
PLAYORDER=
